<?xml version="1.0" encoding="UTF-8" standalone="no"?>
<svg width="66px" height="66px" viewBox="0 0 66 66" version="1.1" xmlns="http://www.w3.org/2000/svg" xmlns:xlink="http://www.w3.org/1999/xlink">
    <!-- Generator: Sketch 41.2 (35397) - http://www.bohemiancoding.com/sketch -->
    <title>gnome-logout</title>
    <desc>Created with Sketch.</desc>
    <defs>
        <rect id="path-1" x="0" y="0" width="66" height="66" rx="8"></rect>
        <path d="M66,40.5 L66,58.0032397 C66,62.4197285 62.428152,66 58.0059995,66 L7.99400046,66 C3.57903592,66 0,62.409232 0,58.0032397 L0,40.5 L0,53.7532397 C0,58.159232 3.57903592,61.75 7.99400046,61.75 L58.0059995,61.75 C62.428152,61.75 66,58.1697285 66,53.7532397 L66,40.5 Z" id="path-3"></path>
    </defs>
    <g id="flat-remix" stroke="none" stroke-width="1" fill="none" fill-rule="evenodd">
        <g id="gnome-logout">
            <g id="Group-Copy">
                <mask id="mask-2" fill="white">
                    <use xlink:href="#path-1"></use>
                </mask>
                <use id="Mask" fill="#FF703A" xlink:href="#path-1"></use>
                <g id="Group-5" opacity="0.858267257" mask="url(#mask-2)" fill="#F9FAFA">
                    <g transform="translate(-18.750000, 19.500000)">
                        <path d="M91.5473981,34.1393346 C91.5473981,55.1520737 74.5328231,72.1871559 53.5466436,72.1871559 C32.5594394,72.1871559 15.5448644,55.1520737 15.5448644,34.1393346 C15.5448644,13.1255696 32.5594394,9.21665226 53.5466436,9.21665226 C74.5328231,9.21665226 91.5473981,13.1255696 91.5473981,34.1393346" id="Fill-1" opacity="0.281191698"></path>
                        <path d="M90.98209,40.7019041 C90.98209,61.7156691 59.7369569,76.7183196 38.748728,76.7183196 C17.7615239,76.7183196 0.746948854,59.6842633 0.746948854,38.6704982 C0.746948854,17.6557072 -1.38333127,0.620625 19.6048976,0.620625 C40.5921017,0.620625 90.98209,19.6881391 90.98209,40.7019041" id="Fill-3" opacity="0.225221549"></path>
                    </g>
                </g>
                <mask id="mask-4" fill="white">
                    <use xlink:href="#path-3"></use>
                </mask>
                <use id="Mask-Copy" fill="#FF703A" xlink:href="#path-3"></use>
                <g id="Page-1" transform="translate(14.250000, 11.250000)" stroke="#9B9B9B" fill="#9B9B9B" opacity="0.443505131">
                    <path d="M24.3,4.402 L24.3,4.437 C23.7411,4.437 23.2875,4.885 23.2875,5.437 C23.2875,5.99 23.7411,6.437 24.3,6.437 L24.3,6.462 C32.414175,8.283 38.475,15.435 38.475,24 C38.475,33.941 30.3152625,42 20.25,42 C10.1847375,42 2.025,33.941 2.025,24 C2.025,15.435 8.085825,8.283 16.2,6.462 L16.2,6.437 C16.7589,6.437 17.2125,5.99 17.2125,5.437 C17.2125,4.885 16.7589,4.437 16.2,4.437 L16.2,4.402 C6.9568875,6.256 0,14.324 0,24 C0,35.046 9.065925,44.002 20.25,44.002 C31.434075,44.002 40.5,35.046 40.5,24 C40.5,14.324 33.5431125,6.256 24.3,4.402 M20.25,26 C20.8089,26 21.2625,25.552 21.2625,25 L21.2625,1 C21.2625,0.448 20.8089,0 20.25,0 C19.6911,0 19.2375,0.448 19.2375,1 L19.2375,25 C19.2375,25.552 19.6911,26 20.25,26" id="Fill-1" style="mix-blend-mode: multiply;"></path>
                </g>
                <g id="Page-1" transform="translate(12.750000, 9.750000)" stroke="#FFFFFF" fill="#FFFFFF">
                    <path d="M24.3,4.402 L24.3,4.437 C23.7411,4.437 23.2875,4.885 23.2875,5.437 C23.2875,5.99 23.7411,6.437 24.3,6.437 L24.3,6.462 C32.414175,8.283 38.475,15.435 38.475,24 C38.475,33.941 30.3152625,42 20.25,42 C10.1847375,42 2.025,33.941 2.025,24 C2.025,15.435 8.085825,8.283 16.2,6.462 L16.2,6.437 C16.7589,6.437 17.2125,5.99 17.2125,5.437 C17.2125,4.885 16.7589,4.437 16.2,4.437 L16.2,4.402 C6.9568875,6.256 0,14.324 0,24 C0,35.046 9.065925,44.002 20.25,44.002 C31.434075,44.002 40.5,35.046 40.5,24 C40.5,14.324 33.5431125,6.256 24.3,4.402 M20.25,26 C20.8089,26 21.2625,25.552 21.2625,25 L21.2625,1 C21.2625,0.448 20.8089,0 20.25,0 C19.6911,0 19.2375,0.448 19.2375,1 L19.2375,25 C19.2375,25.552 19.6911,26 20.25,26" id="Fill-1"></path>
                </g>
            </g>
        </g>
    </g>
</svg>