<?xml version="1.0" encoding="UTF-8" standalone="no"?>
<svg width="450px" height="450px" viewBox="0 0 450 450" version="1.1" xmlns="http://www.w3.org/2000/svg" xmlns:xlink="http://www.w3.org/1999/xlink">
    <!-- Generator: Sketch 41.2 (35397) - http://www.bohemiancoding.com/sketch -->
    <title>document-open-recent</title>
    <desc>Created with Sketch.</desc>
    <defs></defs>
    <g id="flat-remix" stroke="none" stroke-width="1" fill="none" fill-rule="evenodd">
        <g id="document-open-recent">
            <g id="svg859-copy-7">
                <g id="layer1">
                    <rect id="rect907" fill="#FDC451" x="0" y="0.997782705" width="450" height="449.002217" rx="20.320505"></rect>
                    <path d="M443.850359,415.947806 C447.65022,412.146496 450,406.894493 450,401.093197 L450,76.8808983 C450,65.2733947 440.600522,55.8758315 429.005678,55.8758315 L246.494322,55.8758315 C234.89618,55.8758315 225.5,65.2801202 225.5,76.8808983 L225.5,116.139941 L21.9979031,116.139941 C10.4038522,116.139941 1,125.541792 1,137.139563 L1,401.098641 C1,412.690431 10.4010814,422.098264 21.9979031,422.098264 L429.002097,422.098264 C434.799719,422.098264 440.049679,419.747317 443.849991,415.946443 Z" id="Rectangle-25" fill="#CB9D41"></path>
                    <path d="M443.850359,428.918981 C447.65022,425.117671 450,419.865669 450,414.064372 L450,89.8520734 C450,78.2445698 440.600522,68.8470067 429.005678,68.8470067 L246.494322,68.8470067 C234.89618,68.8470067 225.5,78.2512954 225.5,89.8520734 L225.5,129.111116 L21.9979031,129.111116 C10.4038522,129.111116 1,138.512967 1,150.110739 L1,414.069817 C1,425.661607 10.4010814,435.069439 21.9979031,435.069439 L429.002097,435.069439 C434.799719,435.069439 440.049679,432.718492 443.849991,428.917618 Z" id="Rectangle-25" fill="#FFD465"></path>
                    <path d="M0,390.133038 L0,430.679943 C0,438.122624 6.76191064,449.795075 19.4556179,449.795075 L430.544384,449.795075 C441.625519,449.795075 450,441.101445 450,428.983014 L450,390.133038 C450,410.91279 441.322899,427.644878 430.544384,427.644878 L19.4556179,427.644878 C8.67710394,427.644878 0,410.91279 0,390.133038 Z" id="rect907-6" fill="#FDC451"></path>
                    <path d="M19.4556179,0.768691796 C8.3153633,0.768691796 0,9.20792794 0,22.5575721 L0,36.6023814 C0,22.3591729 8.67710394,10.8903991 19.4556179,10.8903991 L430.544384,10.8903991 C441.322899,10.8903991 450,22.3591729 450,36.6023814 L450,21.7226475 C450,7.47943902 441.322899,0.768691796 430.544384,0.768691796 L19.4556179,0.768691796 Z" id="rect907-8" fill="#FFFFFF" opacity="0.3"></path>
                </g>
                <g id="g4160" transform="translate(153.000000, 211.000000)" fill="#CB9D41">
                    <path d="M69.82763,0.40616 C44.17754,0.40616 21.80794,14.32468 9.85869,35.04168 L27.79496,35.04168 C37.78977,22.94399 52.94528,15.24996 69.85238,15.24996 C99.91108,15.24996 124.27966,39.61853 124.27966,69.67724 C124.27966,99.73591 99.91108,124.10449 69.85238,124.10449 C39.79368,124.10449 15.42511,99.73591 15.42511,69.67724 C15.42511,68.00482 15.58839,66.36211 15.73683,64.72929 L0.74459,64.72929 C0.63079,66.36211 0.59121,68.01473 0.59121,69.67724 C0.59121,107.93465 31.60486,138.9483 69.86228,138.9483 C108.1197,138.9483 139.13334,107.93465 139.13334,69.67724 C139.13334,31.41981 108.1197,0.40616 69.86228,0.40616 L69.82763,0.40616 Z" id="path29"></path>
                    <polygon id="path31" points="0.55657 0.39527 0.55657 49.87461 50.0359 49.87461"></polygon>
                    <path d="M68.90237,24.83806 C68.48388,24.9136351 68.0706967,25.0161076 67.66539,25.14484 C63.0563851,26.1753991 59.8179539,30.3192568 59.93176,35.0407 L59.93176,71.5317 C59.9171781,71.8416052 59.9171781,72.1520248 59.93176,72.46193 C59.3507905,75.0022649 59.7952912,77.6692297 61.16876,79.88382 C61.270394,79.9883639 61.374326,80.0906489 61.48048,80.1906 C61.5772386,80.3986654 61.6812048,80.6033025 61.79219,80.80414 C61.893824,80.9086839 61.997756,81.0109689 62.10391,81.11092 C62.2055475,81.2154573 62.3094828,81.3177356 62.41564,81.41768 C62.5172772,81.522224 62.6212126,81.624509 62.72737,81.72446 C62.8290009,81.8289971 62.9329296,81.9312754 63.03908,82.03122 C63.2416124,82.1406426 63.4479012,82.2429649 63.65757,82.338 C63.7592008,82.4425405 63.8631295,82.5448221 63.96928,82.64477 C64.0709174,82.7493107 64.1748527,82.8515923 64.28101,82.95154 C64.4835456,83.0609629 64.6898378,83.1632851 64.89951,83.25832 C65.2970454,83.4913813 65.7103746,83.6963902 66.13648,83.87185 L90.56442,98.09717 C93.6725076,100.157665 97.6691928,100.316544 100.931035,98.5092709 C104.192876,96.7019976 106.177355,93.2291634 106.078383,89.5014224 C105.97941,85.7736813 103.813446,82.4110429 100.4603,80.7794 L79.7433,68.71634 L79.7433,35.01102 C79.8456866,32.1642691 78.7163608,29.4114654 76.6442165,27.4568064 C74.5720723,25.5021474 71.7581092,24.5352364 68.92217,24.80342 L68.90237,24.83806 Z" id="path33"></path>
                </g>
            </g>
        </g>
    </g>
</svg>