<?xml version="1.0" encoding="UTF-8" standalone="no"?>
<svg width="450px" height="450px" viewBox="0 0 450 450" version="1.1" xmlns="http://www.w3.org/2000/svg" xmlns:xlink="http://www.w3.org/1999/xlink">
    <!-- Generator: Sketch 41.2 (35397) - http://www.bohemiancoding.com/sketch -->
    <title>folder-templates</title>
    <desc>Created with Sketch.</desc>
    <defs></defs>
    <g id="flat-remix" stroke="none" stroke-width="1" fill="none" fill-rule="evenodd">
        <g id="folder-templates">
            <g id="svg859-copy-14">
                <g id="layer1">
                    <rect id="rect907" fill="#FDC451" x="0" y="0.997782705" width="450" height="449.002217" rx="20.320505"></rect>
                    <path d="M443.850359,415.947806 C447.65022,412.146496 450,406.894493 450,401.093197 L450,76.8808983 C450,65.2733947 440.600522,55.8758315 429.005678,55.8758315 L246.494322,55.8758315 C234.89618,55.8758315 225.5,65.2801202 225.5,76.8808983 L225.5,116.139941 L21.9979031,116.139941 C10.4038522,116.139941 1,125.541792 1,137.139563 L1,401.098641 C1,412.690431 10.4010814,422.098264 21.9979031,422.098264 L429.002097,422.098264 C434.799719,422.098264 440.049679,419.747317 443.849991,415.946443 Z" id="Rectangle-25" fill="#CB9D41"></path>
                    <path d="M443.850359,428.918981 C447.65022,425.117671 450,419.865669 450,414.064372 L450,89.8520734 C450,78.2445698 440.600522,68.8470067 429.005678,68.8470067 L246.494322,68.8470067 C234.89618,68.8470067 225.5,78.2512954 225.5,89.8520734 L225.5,129.111116 L21.9979031,129.111116 C10.4038522,129.111116 1,138.512967 1,150.110739 L1,414.069817 C1,425.661607 10.4010814,435.069439 21.9979031,435.069439 L429.002097,435.069439 C434.799719,435.069439 440.049679,432.718492 443.849991,428.917618 Z" id="Rectangle-25" fill="#FFD465"></path>
                    <path d="M0,390.133038 L0,430.679943 C0,438.122624 6.76191064,449.795075 19.4556179,449.795075 L430.544384,449.795075 C441.625519,449.795075 450,441.101445 450,428.983014 L450,390.133038 C450,410.91279 441.322899,427.644878 430.544384,427.644878 L19.4556179,427.644878 C8.67710394,427.644878 0,410.91279 0,390.133038 Z" id="rect907-6" fill="#FDC451"></path>
                    <path d="M19.4556179,0.768691796 C8.3153633,0.768691796 0,9.20792794 0,22.5575721 L0,36.6023814 C0,22.3591729 8.67710394,10.8903991 19.4556179,10.8903991 L430.544384,10.8903991 C441.322899,10.8903991 450,22.3591729 450,36.6023814 L450,21.7226475 C450,7.47943902 441.322899,0.768691796 430.544384,0.768691796 L19.4556179,0.768691796 Z" id="rect907-8" fill="#FFFFFF" opacity="0.3"></path>
                </g>
                <path d="M168.81836,194 L168.81836,205.65854 L244.97266,205.65854 L278.76563,246.90509 L278.76563,328.01134 L268.19922,328.01134 L268.19922,338.02028 L288.76172,338.02028 L288.31641,244.49055 L288.31641,242.07428 L248.92969,194 L168.81836,194 Z M168.9707,213.25789 L168.9707,236.55263 L178.52149,236.55263 L178.52149,213.25789 L168.9707,213.25789 Z M168.9707,259.868 L168.9707,283.18336 L178.52149,283.18336 L178.52149,259.868 L168.9707,259.868 Z M168.9707,308.49738 L168.9707,328.01134 L153,328.01134 L153,338.00138 L168.9707,338.00138 L168.9707,355.62297 L178.50586,355.62297 L178.50586,338.00138 L194.49414,338.00138 L194.49414,328.01134 L178.50586,328.01134 L178.50586,308.49738 L168.9707,308.49738 Z M215.25,328.01134 L215.25,338.02028 L242.61328,338.02028 L242.61328,328.01134 L215.25,328.01134 Z" id="path143" stroke="#C5983F" stroke-width="9.16978264" fill="#C5983F"></path>
            </g>
        </g>
    </g>
</svg>