<?xml version="1.0" encoding="UTF-8" standalone="no"?>
<svg width="450px" height="450px" viewBox="0 0 450 450" version="1.1" xmlns="http://www.w3.org/2000/svg" xmlns:xlink="http://www.w3.org/1999/xlink">
    <!-- Generator: Sketch 41.2 (35397) - http://www.bohemiancoding.com/sketch -->
    <title>folder-saved-search</title>
    <desc>Created with Sketch.</desc>
    <defs></defs>
    <g id="flat-remix" stroke="none" stroke-width="1" fill="none" fill-rule="evenodd">
        <g id="folder-saved-search">
            <g id="svg859-copy-11">
                <g id="layer1">
                    <rect id="rect907" fill="#FDC451" x="0" y="0.997782705" width="450" height="449.002217" rx="20.320505"></rect>
                    <path d="M443.850359,415.947806 C447.65022,412.146496 450,406.894493 450,401.093197 L450,76.8808983 C450,65.2733947 440.600522,55.8758315 429.005678,55.8758315 L246.494322,55.8758315 C234.89618,55.8758315 225.5,65.2801202 225.5,76.8808983 L225.5,116.139941 L21.9979031,116.139941 C10.4038522,116.139941 1,125.541792 1,137.139563 L1,401.098641 C1,412.690431 10.4010814,422.098264 21.9979031,422.098264 L429.002097,422.098264 C434.799719,422.098264 440.049679,419.747317 443.849991,415.946443 Z" id="Rectangle-25" fill="#CB9D41"></path>
                    <path d="M443.850359,428.918981 C447.65022,425.117671 450,419.865669 450,414.064372 L450,89.8520734 C450,78.2445698 440.600522,68.8470067 429.005678,68.8470067 L246.494322,68.8470067 C234.89618,68.8470067 225.5,78.2512954 225.5,89.8520734 L225.5,129.111116 L21.9979031,129.111116 C10.4038522,129.111116 1,138.512967 1,150.110739 L1,414.069817 C1,425.661607 10.4010814,435.069439 21.9979031,435.069439 L429.002097,435.069439 C434.799719,435.069439 440.049679,432.718492 443.849991,428.917618 Z" id="Rectangle-25" fill="#FFD465"></path>
                    <path d="M0,390.133038 L0,430.679943 C0,438.122624 6.76191064,449.795075 19.4556179,449.795075 L430.544384,449.795075 C441.625519,449.795075 450,441.101445 450,428.983014 L450,390.133038 C450,410.91279 441.322899,427.644878 430.544384,427.644878 L19.4556179,427.644878 C8.67710394,427.644878 0,410.91279 0,390.133038 Z" id="rect907-6" fill="#FDC451"></path>
                    <path d="M19.4556179,0.768691796 C8.3153633,0.768691796 0,9.20792794 0,22.5575721 L0,36.6023814 C0,22.3591729 8.67710394,10.8903991 19.4556179,10.8903991 L430.544384,10.8903991 C441.322899,10.8903991 450,22.3591729 450,36.6023814 L450,21.7226475 C450,7.47943902 441.322899,0.768691796 430.544384,0.768691796 L19.4556179,0.768691796 Z" id="rect907-8" fill="#FFFFFF" opacity="0.3"></path>
                </g>
                <g id="g3926" transform="translate(152.000000, 197.000000)" fill="#CB9D41">
                    <g id="g4102" transform="translate(0.737289, 0.872881)">
                        <g id="g4157" transform="translate(0.091990, 0.545750)">
                            <g id="g4214" transform="translate(0.868643, 0.393990)">
                                <path d="M61.60768,0.99614 C27.79499,0.99614 0.40716,28.35409 0.40716,62.19666 C0.40716,96.00935 27.79499,123.397176 61.60768,123.397176 C70.94613,123.397176 79.7168,121.335246 87.6657,117.65963 L110.6159,140.609826 C121.4037,151.472326 121.5083,151.472326 132.3708,140.609826 C143.1586,129.822036 143.1586,129.717446 132.3708,118.854956 L111.3331,97.81728 C118.52,87.7168 122.8082,75.50957 122.8082,62.19666 C122.8082,28.35409 95.4204,0.99614 61.60768,0.99614 L61.60768,0.99614 Z M60.65142,31.5964 C68.92903,31.34238 76.96757,34.45023 82.9143,40.21766 C88.861,45.9851 92.2079,53.91905 92.2079,62.19666 C92.2079,79.09554 78.5066,92.78198 61.60768,92.78198 C44.7088,92.78198 31.00742,79.09554 31.00742,62.19666 C30.99252,45.67133 44.12608,32.11936 60.65142,31.5964 L60.65142,31.5964 Z" id="path3898"></path>
                            </g>
                        </g>
                    </g>
                </g>
            </g>
        </g>
    </g>
</svg>