<?xml version="1.0" encoding="utf-8"?>
<!-- Generator: Adobe Illustrator 16.0.0, SVG Export Plug-In . SVG Version: 6.00 Build 0)  -->
<!DOCTYPE svg PUBLIC "-//W3C//DTD SVG 1.1//EN" "http://www.w3.org/Graphics/SVG/1.1/DTD/svg11.dtd">
<svg version="1.1" id="Livello_1" xmlns="http://www.w3.org/2000/svg" xmlns:xlink="http://www.w3.org/1999/xlink" x="0px" y="0px"
	 width="450px" height="451px" viewBox="0 0 450 451" enable-background="new 0 0 450 451" xml:space="preserve">
<title>cs-desktop</title>
<desc>Created with Sketch.</desc>
<g id="flat-remix">
	<g id="cs-desktop" transform="translate(0.000000, -1.000000)">
		<g id="svg859">
			<g id="layer1" transform="translate(0.000000, 0.637800)">
				
					<linearGradient id="rect907_1_" gradientUnits="userSpaceOnUse" x1="-72.3147" y1="644.9335" x2="-70.762" y2="646.5453" gradientTransform="matrix(450 0 0 -450 32552.6406 290668.0938)">
					<stop  offset="0" style="stop-color:#35304E"/>
					<stop  offset="1" style="stop-color:#7567B7"/>
				</linearGradient>
				<path id="rect907" fill="url(#rect907_1_)" d="M20.321,1h409.358C440.902,1,450,10.098,450,21.321V430.68
					c0,11.223-9.099,20.32-20.321,20.32H20.321C9.098,451,0,441.902,0,430.68V21.321C0,10.098,9.098,1,20.321,1z"/>
				<path id="rect907-6" opacity="0.3" enable-background="new    " d="M0,391v40.637c0,7.46,6.762,19.158,19.455,19.158h411.089
					c11.081,0,19.456-8.713,19.456-20.858V391c0,20.826-8.678,37.596-19.456,37.596H19.455C8.677,428.596,0,411.826,0,391z"/>
				<path id="rect907-8" opacity="0.3" fill="#FFFFFF" enable-background="new    " d="M19.455,0.77C8.316,0.77,0,9.228,0,22.608
					v14.076c0-14.274,8.677-25.769,19.455-25.769h411.089c10.778,0,19.456,11.495,19.456,25.769V21.771c0-14.275-8.678-21-19.456-21
					H19.455z"/>
			</g>
		</g>
	</g>
</g>
<g>
	<path id="rect3369-7" opacity="0.3" enable-background="new    " d="M303.645,339.22h-37.568v39.942h37.568V339.22z
		 M247.291,339.22h-37.57v39.942h37.57V339.22z M190.936,339.22h-37.569v39.942h37.569V339.22z"/>
	<path id="rect3369" fill="#FFFFFF" d="M296.633,332.208h-37.568v39.942h37.568V332.208z M240.28,332.208h-37.57v39.942h37.57
		V332.208z M183.925,332.208h-37.569v39.942h37.569V332.208z"/>
</g>
</svg>
