<?xml version="1.0" encoding="utf-8"?>
<!-- Generator: Adobe Illustrator 16.0.0, SVG Export Plug-In . SVG Version: 6.00 Build 0)  -->
<!DOCTYPE svg PUBLIC "-//W3C//DTD SVG 1.1//EN" "http://www.w3.org/Graphics/SVG/1.1/DTD/svg11.dtd">
<svg version="1.1" id="Livello_1" xmlns="http://www.w3.org/2000/svg" xmlns:xlink="http://www.w3.org/1999/xlink" x="0px" y="0px"
	 width="28px" height="44px" viewBox="0 0 28 44" enable-background="new 0 0 28 44" xml:space="preserve">
<title>audio-output-none</title>
<desc>Created with Sketch.</desc>
<g id="flat-remix_1_" opacity="0.5">
	<g id="audio-volume-high" transform="translate(-4.000000, -4.000000)">
		<g id="svg6530_1_">
			<g id="layer1_1_" transform="translate(-0.000003, 0.636100)">
				<g id="Page-1-Copy-3" transform="translate(4.000003, 3.363900)">
					<path id="Fill-1_1_" fill="#E7372E" d="M19.888,32.291c0,0.301-0.267,0.543-0.592,0.543c-0.172,0-0.322-0.068-0.431-0.171
						l-0.002,0.001l-0.151-0.13v-21.07l0.17-0.144l0.002,0.003c0.106-0.097,0.25-0.155,0.412-0.155c0.325,0,0.592,0.243,0.592,0.542
						V32.291z M17.531,31.548l-5.89-4.933v-9.243l0.264-0.22l-0.003-0.002l5.628-4.702L17.531,31.548L17.531,31.548z M10.464,26.248
						c-1.345-0.4-2.359-2.15-2.359-4.248c0-2.096,1.015-3.846,2.359-4.249V26.248z M21.071,11.702c0-0.897-0.794-1.624-1.773-1.624
						c-0.502,0-0.951,0.191-1.272,0.499l-7.208,6.019C8.649,16.758,6.929,19.111,6.929,22c0,2.9,1.73,5.26,3.91,5.405l7.182,6.02
						c0.324,0.306,0.775,0.497,1.277,0.497c0.979,0,1.772-0.727,1.772-1.622c0-0.022-0.007-0.04-0.007-0.062V11.764
						C21.065,11.743,21.071,11.725,21.071,11.702L21.071,11.702z"/>
				</g>
			</g>
		</g>
	</g>
</g>
</svg>
