<?xml version="1.0" encoding="utf-8"?>
<!-- Generator: Adobe Illustrator 16.0.0, SVG Export Plug-In . SVG Version: 6.00 Build 0)  -->
<!DOCTYPE svg PUBLIC "-//W3C//DTD SVG 1.1//EN" "http://www.w3.org/Graphics/SVG/1.1/DTD/svg11.dtd">
<svg version="1.1" id="Livello_1" xmlns="http://www.w3.org/2000/svg" xmlns:xlink="http://www.w3.org/1999/xlink" x="0px" y="0px"
	 width="28px" height="44px" viewBox="0 0 28 44" enable-background="new 0 0 28 44" xml:space="preserve">
<title>audio-volume-low-panel</title>
<desc>Created with Sketch.</desc>
<g id="flat-remix">
	<g id="audio-volume-medium" transform="translate(-4.000000, -4.000000)">
		<g id="svg6530">
			<g id="layer1" transform="translate(-0.000203, 0.636100)">
				<g id="Page-1-Copy-4" transform="translate(4.000203, 3.363900)">
					<path id="Fill-1" fill="#E7372E" d="M19.887,32.291c0,0.301-0.265,0.543-0.592,0.543c-0.173,0-0.322-0.068-0.429-0.17h-0.003
						l-0.153-0.131V11.464l0.172-0.143l0.005,0.002c0.104-0.096,0.247-0.155,0.409-0.155c0.326,0,0.591,0.243,0.591,0.542V32.291z
						 M17.531,31.547l-5.891-4.932v-9.243l0.264-0.221l-0.003-0.001l5.628-4.702L17.531,31.547L17.531,31.547z M10.464,26.248
						c-1.346-0.4-2.357-2.15-2.357-4.247c0-2.097,1.013-3.846,2.357-4.25V26.248z M21.07,11.702c0-0.897-0.793-1.624-1.771-1.624
						c-0.504,0-0.955,0.191-1.275,0.498l-7.207,6.02c-2.167,0.162-3.887,2.515-3.887,5.405c0,2.901,1.729,5.261,3.908,5.405
						l7.182,6.02c0.324,0.305,0.775,0.496,1.279,0.496c0.979,0,1.771-0.727,1.771-1.621c0-0.025-0.006-0.041-0.006-0.062V11.763
						C21.064,11.743,21.07,11.723,21.07,11.702L21.07,11.702z"/>
				</g>
			</g>
		</g>
	</g>
</g>
</svg>
