<?xml version="1.0" encoding="utf-8"?>
<!-- Generator: Adobe Illustrator 16.0.0, SVG Export Plug-In . SVG Version: 6.00 Build 0)  -->
<!DOCTYPE svg PUBLIC "-//W3C//DTD SVG 1.1//EN" "http://www.w3.org/Graphics/SVG/1.1/DTD/svg11.dtd">
<svg version="1.1" id="Livello_1" xmlns="http://www.w3.org/2000/svg" xmlns:xlink="http://www.w3.org/1999/xlink" x="0px" y="0px"
	 width="28px" height="44px" viewBox="0 0 28 44" enable-background="new 0 0 28 44" xml:space="preserve">
<title>audio-volume-medium-panel</title>
<desc>Created with Sketch.</desc>
<g id="flat-remix">
	<g id="audio-volume-medium" transform="translate(-4.000000, -4.000000)">
		<g id="svg6530">
			<g id="layer1" transform="translate(-0.000203, 0.636100)">
				<g id="Page-1-Copy-4" transform="translate(4.000203, 3.363900)">
					<path id="Fill-1" fill="#E7372E" d="M16.995,32.291c0,0.301-0.265,0.543-0.592,0.543c-0.171,0-0.322-0.068-0.429-0.17h-0.002
						l-0.154-0.131V11.464l0.172-0.143l0.003,0.002c0.106-0.096,0.249-0.155,0.41-0.155c0.327,0,0.592,0.243,0.592,0.542V32.291z
						 M14.639,31.547l-5.891-4.932v-9.243l0.264-0.221L9.01,17.15l5.628-4.702V31.547z M7.572,26.248
						c-1.345-0.4-2.358-2.15-2.358-4.247c0-2.097,1.013-3.846,2.358-4.25V26.248z M18.18,11.702c0-0.897-0.793-1.624-1.772-1.624
						c-0.503,0-0.954,0.191-1.274,0.498l-7.208,6.02c-2.167,0.162-3.887,2.515-3.887,5.405c0,2.901,1.73,5.261,3.909,5.405
						l7.182,6.02c0.324,0.305,0.775,0.496,1.278,0.496c0.979,0,1.772-0.727,1.772-1.621c0-0.025-0.006-0.041-0.006-0.062V11.763
						C18.174,11.743,18.18,11.723,18.18,11.702L18.18,11.702z"/>
					<path id="Fill-5" fill="#E7372E" d="M20.932,18.406c-0.336,0-0.607,0.253-0.607,0.559c0,0.309,0.271,0.556,0.607,0.556
						c1.004,0,1.815,1.001,1.815,2.232c0,1.233-0.812,2.233-1.815,2.233c-0.336,0-0.607,0.248-0.607,0.559
						c0,0.307,0.271,0.557,0.607,0.557c1.672,0,3.03-1.498,3.03-3.349C23.962,19.907,22.602,18.406,20.932,18.406"/>
				</g>
			</g>
		</g>
	</g>
</g>
</svg>
