<?xml version="1.0" encoding="utf-8"?>
<!-- Generator: Adobe Illustrator 16.0.0, SVG Export Plug-In . SVG Version: 6.00 Build 0)  -->
<!DOCTYPE svg PUBLIC "-//W3C//DTD SVG 1.1//EN" "http://www.w3.org/Graphics/SVG/1.1/DTD/svg11.dtd">
<svg version="1.1" id="Livello_1" xmlns="http://www.w3.org/2000/svg" xmlns:xlink="http://www.w3.org/1999/xlink" x="0px" y="0px"
	 width="28px" height="44px" viewBox="0 0 28 44" enable-background="new 0 0 28 44" xml:space="preserve">
<title>audio-volume-muted-symbolic</title>
<desc>Created with Sketch.</desc>
<g id="flat-remix_1_">
	<g id="audio-output-none-panel" transform="translate(-4.000000, -4.000000)">
		<g id="svg6530_1_">
			<g id="Page-1-Copy-7_1_" transform="translate(4.000000, 4.000000)" opacity="0.5035">
				<path id="Fill-1_1_" fill="#E7372E" d="M19.888,32.29c0,0.302-0.266,0.543-0.594,0.543c-0.17,0-0.32-0.067-0.428-0.171h-0.001
					l-0.154-0.13V11.464l0.172-0.143l0.002,0.002c0.107-0.097,0.25-0.155,0.41-0.155c0.327,0,0.593,0.243,0.593,0.542V32.29z
					 M17.531,31.547l-5.891-4.933v-9.243l0.265-0.22l-0.002-0.001l5.628-4.702V31.547z M10.464,26.247
					C9.12,25.848,8.107,24.097,8.107,22c0-2.096,1.013-3.846,2.356-4.249V26.247z M21.07,11.702c0-0.897-0.793-1.624-1.772-1.624
					c-0.502,0-0.953,0.19-1.275,0.499l-7.205,6.019C8.65,16.758,6.93,19.111,6.93,22c0,2.9,1.73,5.26,3.909,5.404l7.182,6.019
					c0.324,0.307,0.775,0.499,1.277,0.499c0.979,0,1.771-0.729,1.771-1.623c0-0.022-0.007-0.041-0.007-0.062V11.763
					C21.063,11.743,21.07,11.723,21.07,11.702L21.07,11.702z"/>
			</g>
		</g>
	</g>
</g>
</svg>
