<?xml version="1.0" encoding="utf-8"?>
<!-- Generator: Adobe Illustrator 16.0.0, SVG Export Plug-In . SVG Version: 6.00 Build 0)  -->
<!DOCTYPE svg PUBLIC "-//W3C//DTD SVG 1.1//EN" "http://www.w3.org/Graphics/SVG/1.1/DTD/svg11.dtd">
<svg version="1.1" id="Livello_1" xmlns="http://www.w3.org/2000/svg" xmlns:xlink="http://www.w3.org/1999/xlink" x="0px" y="0px"
	 width="28px" height="44px" viewBox="0 0 28 44" enable-background="new 0 0 28 44" xml:space="preserve">
<title>audio-volume-muted-panel</title>
<desc>Created with Sketch.</desc>
<g id="flat-remix" opacity="0.5">
	<g id="audio-volume-high" transform="translate(-4.000000, -4.000000)">
		<g id="svg6530">
			<g id="layer1" transform="translate(-0.000003, 0.636100)">
				<g id="Page-1-Copy-3" transform="translate(4.000003, 3.363900)">
					<path id="Fill-1" fill="#E7372E" d="M19.889,32.291c0,0.301-0.268,0.543-0.593,0.543c-0.172,0-0.321-0.068-0.431-0.171
						l-0.002,0.001l-0.151-0.13v-21.07l0.17-0.144l0.002,0.003c0.106-0.097,0.25-0.155,0.412-0.155c0.325,0,0.593,0.243,0.593,0.542
						V32.291z M17.531,31.548l-5.89-4.933v-9.243l0.264-0.22l-0.003-0.002l5.627-4.702L17.531,31.548L17.531,31.548z M10.464,26.248
						c-1.345-0.4-2.358-2.15-2.358-4.248c0-2.096,1.015-3.846,2.358-4.249V26.248z M21.07,11.702c0-0.897-0.793-1.624-1.772-1.624
						c-0.502,0-0.95,0.191-1.272,0.499l-7.207,6.019C8.649,16.758,6.93,19.111,6.93,22c0,2.9,1.729,5.26,3.909,5.405l7.183,6.02
						c0.324,0.306,0.774,0.497,1.276,0.497c0.979,0,1.772-0.727,1.772-1.622c0-0.022-0.008-0.04-0.008-0.062V11.764
						C21.064,11.743,21.07,11.725,21.07,11.702L21.07,11.702z"/>
				</g>
			</g>
		</g>
	</g>
</g>
</svg>
