<?xml version="1.0" encoding="utf-8"?>
<!-- Generator: Adobe Illustrator 16.0.0, SVG Export Plug-In . SVG Version: 6.00 Build 0)  -->
<!DOCTYPE svg PUBLIC "-//W3C//DTD SVG 1.1//EN" "http://www.w3.org/Graphics/SVG/1.1/DTD/svg11.dtd">
<svg version="1.1" id="Livello_1" xmlns="http://www.w3.org/2000/svg" xmlns:xlink="http://www.w3.org/1999/xlink" x="0px" y="0px"
	 width="28px" height="44px" viewBox="0 0 28 44" enable-background="new 0 0 28 44" xml:space="preserve">
<title>audio-volume-high-panel</title>
<desc>Created with Sketch.</desc>
<g id="flat-remix">
	<g id="audio-volume-high" transform="translate(-4.000000, -4.000000)">
		<g id="svg6530">
			<g id="layer1" transform="translate(-0.000003, 0.636100)">
				<g id="Page-1-Copy-3" transform="translate(4.000003, 3.363900)">
					<path id="Fill-1" fill="#E7372E" d="M15.178,32.291c0,0.301-0.267,0.543-0.592,0.543c-0.172,0-0.322-0.068-0.431-0.171
						l-0.002,0.001l-0.151-0.13v-21.07l0.17-0.144l0.002,0.003c0.106-0.097,0.25-0.155,0.412-0.155c0.325,0,0.592,0.243,0.592,0.542
						V32.291z M12.821,31.548l-5.891-4.933v-9.243l0.265-0.22L7.192,17.15l5.628-4.702L12.821,31.548L12.821,31.548z M5.753,26.248
						c-1.344-0.4-2.358-2.15-2.358-4.248c0-2.096,1.015-3.846,2.358-4.249V26.248z M16.361,11.702c0-0.897-0.794-1.624-1.773-1.624
						c-0.502,0-0.951,0.191-1.272,0.499l-7.208,6.019C3.939,16.758,2.219,19.111,2.219,22c0,2.9,1.73,5.26,3.91,5.405l7.182,6.02
						c0.324,0.306,0.775,0.497,1.277,0.497c0.979,0,1.772-0.727,1.772-1.622c0-0.022-0.007-0.04-0.007-0.062V11.764
						C16.355,11.743,16.361,11.725,16.361,11.702L16.361,11.702z"/>
					<path id="Fill-3" fill="#E7372E" d="M22.268,15.857l-0.01,0.018c-0.088-0.048-0.186-0.081-0.299-0.081
						c-0.332,0-0.604,0.249-0.604,0.556c0,0.197,0.117,0.359,0.281,0.459l-0.002,0.002c1.744,0.932,2.934,2.793,2.934,4.943
						c0,2.146-1.188,4.005-2.924,4.938l0.004,0.006c-0.166,0.101-0.281,0.266-0.281,0.461c0,0.31,0.27,0.558,0.605,0.558
						c0.109,0,0.207-0.032,0.297-0.08l0.008,0.009c2.088-1.129,3.504-3.342,3.504-5.89C25.781,19.203,24.361,16.988,22.268,15.857"
						/>
					<path id="Fill-5" fill="#E7372E" d="M19.113,18.406c-0.336,0-0.607,0.253-0.607,0.558c0,0.31,0.271,0.558,0.607,0.558
						c1.004,0,1.816,1,1.816,2.231s-0.812,2.233-1.816,2.233c-0.336,0-0.607,0.248-0.607,0.558c0,0.308,0.271,0.558,0.607,0.558
						c1.672,0,3.029-1.498,3.029-3.348C22.143,19.907,20.785,18.406,19.113,18.406"/>
				</g>
			</g>
		</g>
	</g>
</g>
</svg>
