<?xml version="1.0" encoding="UTF-8" standalone="no"?>
<svg width="10px" height="16px" viewBox="0 0 10 16" version="1.1" xmlns="http://www.w3.org/2000/svg" xmlns:xlink="http://www.w3.org/1999/xlink">
    <!-- Generator: Sketch 41.2 (35397) - http://www.bohemiancoding.com/sketch -->
    <title>audio-volume-muted</title>
    <desc>Created with Sketch.</desc>
    <defs></defs>
    <g id="flat-remix" stroke="none" stroke-width="1" fill="none" fill-rule="evenodd">
        <g id="audio-volume-muted" transform="translate(-4.000000, -4.000000)">
            <g id="svg6530">
                <g id="layer1" transform="translate(-0.000200, 0.636100)" opacity="0.1">
                    <rect id="rect5103" x="0.0002" y="0.36389" width="22" height="22"></rect>
                </g>
                <g id="Page-1-Copy-7" opacity="0.503498134" transform="translate(4.000000, 4.000000)" fill="#E7372E">
                    <path d="M8.57947826,14.7072 C8.57947826,14.9056 8.40347826,15.06624 8.18713043,15.06624 C8.07443478,15.06624 7.97495652,15.02144 7.90330435,14.95232 L7.90191304,14.9536 L7.80034783,14.86784 L7.80034783,0.91776 L7.91373913,0.82304 L7.91513043,0.82432 C7.9853913,0.76096 8.08069565,0.72192 8.18713043,0.72192 C8.40347826,0.72192 8.57947826,0.88256 8.57947826,1.08096 L8.57947826,14.7072 Z M7.01913043,14.2144 L3.11930435,10.94848 L3.11930435,4.8288 L3.29391304,4.68352 L3.29252174,4.68224 L7.01913043,1.56928 L7.01913043,14.2144 Z M2.34017391,10.70592 C1.44973913,10.4416 0.779130435,9.28192 0.779130435,7.89376 C0.779130435,6.50624 1.44973913,5.3472 2.34017391,5.08096 L2.34017391,10.70592 Z M9.36347826,1.0752 C9.36347826,0.48128 8.83826087,0 8.18852174,0 C7.85669565,0 7.55826087,0.12672 7.3453913,0.33024 L2.57391304,4.31552 C1.13878261,4.4224 0,5.9808 0,7.89376 C0,9.81376 1.14573913,11.37664 2.58852174,11.47264 L7.34330435,15.45792 C7.55826087,15.66016 7.85669565,15.78688 8.18852174,15.78688 C8.83826087,15.78688 9.36347826,15.3056 9.36347826,14.71296 C9.36347826,14.6976 9.35930435,14.68608 9.35930435,14.672 L9.35930435,1.11616 C9.35930435,1.10208 9.36347826,1.08928 9.36347826,1.0752 L9.36347826,1.0752 Z" id="Fill-1"></path>
                </g>
            </g>
        </g>
    </g>
</svg>