<?xml version="1.0" encoding="UTF-8" standalone="no"?>
<svg width="16px" height="16px" viewBox="0 0 16 16" version="1.1" xmlns="http://www.w3.org/2000/svg" xmlns:xlink="http://www.w3.org/1999/xlink">
    <!-- Generator: Sketch 41.2 (35397) - http://www.bohemiancoding.com/sketch -->
    <title>audio-volume-high</title>
    <desc>Created with Sketch.</desc>
    <defs></defs>
    <g id="flat-remix" stroke="none" stroke-width="1" fill="none" fill-rule="evenodd">
        <g id="audio-volume-high" transform="translate(-4.000000, -4.000000)">
            <g id="svg6530">
                <g id="layer1" transform="translate(-0.000003, 0.636100)">
                    <rect id="rect5073" opacity="0.1" x="-3.99999999e-06" y="0.36389" width="22" height="22"></rect>
                    <g id="Page-1-Copy-3" transform="translate(4.000003, 3.363900)" fill="#E7372E">
                        <path d="M8.57982609,14.70752 C8.57982609,14.90592 8.40382609,15.06656 8.18747826,15.06656 C8.07478261,15.06656 7.97530435,15.02176 7.90365217,14.95264 L7.90226087,14.95392 L7.80069565,14.86816 L7.80069565,0.91808 L7.91408696,0.82336 L7.91547826,0.82464 C7.98573913,0.76128 8.08104348,0.72224 8.18747826,0.72224 C8.40382609,0.72224 8.57982609,0.88288 8.57982609,1.08128 L8.57982609,14.70752 Z M7.01947826,14.21472 L3.11965217,10.9488 L3.11965217,4.82912 L3.29426087,4.68384 L3.29286957,4.68256 L7.01947826,1.5696 L7.01947826,14.21472 Z M2.34052174,10.70624 C1.45008696,10.44192 0.779478261,9.28224 0.779478261,7.89408 C0.779478261,6.50656 1.45008696,5.34752 2.34052174,5.08128 L2.34052174,10.70624 Z M9.36382609,1.07552 C9.36382609,0.4816 8.8386087,0.00032 8.18886957,0.00032 C7.85704348,0.00032 7.5586087,0.12704 7.34573913,0.33056 L2.57426087,4.31584 C1.13913043,4.42272 0.000347826087,5.98112 0.000347826087,7.89408 C0.000347826087,9.81408 1.14608696,11.37696 2.58886957,11.47296 L7.34365217,15.45824 C7.5586087,15.66048 7.85704348,15.7872 8.18886957,15.7872 C8.8386087,15.7872 9.36382609,15.30592 9.36382609,14.71328 C9.36382609,14.69792 9.35965217,14.6864 9.35965217,14.67232 L9.35965217,1.11648 C9.35965217,1.1024 9.36382609,1.0896 9.36382609,1.07552 L9.36382609,1.07552 Z" id="Fill-1"></path>
                        <path d="M13.2744348,3.82688 L13.2681739,3.8384 C13.2083478,3.8064 13.1443478,3.78464 13.0706087,3.78464 C12.8493913,3.78464 12.6706087,3.94912 12.6706087,4.152 C12.6706087,4.2832 12.7471304,4.39072 12.8563478,4.456 L12.8549565,4.45792 C14.0097391,5.07488 14.7965217,6.30752 14.7965217,7.73088 C14.7965217,9.15168 14.0111304,10.38304 12.8612174,11.00064 L12.864,11.00448 C12.7533913,11.0704 12.6768696,11.1792 12.6768696,11.30848 C12.6768696,11.51328 12.8563478,11.6784 13.0782609,11.6784 C13.1513043,11.6784 13.216,11.656 13.2758261,11.62464 L13.28,11.63104 C14.6622609,10.88288 15.5993043,9.41792 15.5993043,7.73088 C15.5993043,6.04192 14.6594783,4.57504 13.2744348,3.82688" id="Fill-3"></path>
                        <path d="M11.1844174,5.514368 C10.9625043,5.514368 10.7830261,5.681408 10.7830261,5.883648 C10.7830261,6.088448 10.9625043,6.252288 11.1844174,6.252288 C11.8494609,6.252288 12.3878957,6.914688 12.3878957,7.730688 C12.3878957,8.546048 11.8494609,9.208448 11.1844174,9.208448 C10.9625043,9.208448 10.7830261,9.373568 10.7830261,9.577728 C10.7830261,9.781248 10.9625043,9.947008 11.1844174,9.947008 C12.2918957,9.947008 13.1920696,8.955008 13.1920696,7.730688 C13.1920696,6.507648 12.2918957,5.514368 11.1844174,5.514368" id="Fill-5"></path>
                    </g>
                </g>
            </g>
        </g>
    </g>
</svg>